<?xml version="1.0" encoding="utf-8"?>
<!-- Generator: Adobe Illustrator 25.0.1, SVG Export Plug-In . SVG Version: 6.00 Build 0)  -->
<svg version="1.1" id="Layer_1" xmlns="http://www.w3.org/2000/svg" xmlns:xlink="http://www.w3.org/1999/xlink" x="0px" y="0px"
	 viewBox="0 0 539.17 140.87" style="enable-background:new 0 0 539.17 140.87;" xml:space="preserve">
<style type="text/css">
	.st0{fill:#FFFFFF;}
	.st1{fill:#8DC63F;}
	.st2{fill:#2B3990;}
	.st3{font-family:'AzonixRegular';}
	.st4{font-size:41.3357px;}
	.st5{letter-spacing:4.99;}
</style>
<circle class="st0" cx="70.5" cy="70.21" r="39.99"/>
<path class="st1" d="M128.16,78.02c-1.82-0.49-3.8,0.55-4.33,2.5l-0.08,0.31l-8.17-2.19c0.51-2.73,0.78-5.55,0.78-8.42
	c0-2.88-0.27-5.69-0.78-8.42l8.17-2.19l0.08,0.31c0.52,1.95,2.51,2.98,4.33,2.5c1.88-0.5,3-2.44,2.5-4.33l-1.99-7.43
	c-0.51-1.88-2.44-3-4.33-2.5c-1.88,0.5-3,2.44-2.5,4.33l0.08,0.31l-8.18,2.19c-1.91-5.39-4.79-10.32-8.44-14.57l6-6l0.22,0.22
	c1.38,1.38,3.62,1.38,5,0c1.38-1.38,1.38-3.62,0-5l-5.44-5.44c-1.38-1.38-3.62-1.38-5,0c-1.38,1.38-1.38,3.62,0,5l0.22,0.22l-6,6
	c-4.26-3.65-9.18-6.53-14.57-8.44l2.19-8.17l0.31,0.08c1.96,0.52,3.84-0.69,4.33-2.5c0.5-1.88-0.61-3.82-2.5-4.33l-7.43-1.99
	c-1.88-0.51-3.82,0.61-4.33,2.5c-0.5,1.88,0.61,3.82,2.5,4.33l0.31,0.08l-2.19,8.17c-2.73-0.51-5.55-0.78-8.42-0.78
	c-2.88,0-5.69,0.27-8.42,0.78l-2.19-8.17l0.31-0.08c1.88-0.5,3-2.44,2.5-4.33c-0.5-1.88-2.44-3-4.33-2.5l-7.43,1.99
	c-1.88,0.5-3,2.44-2.5,4.33c0.48,1.81,2.37,3.02,4.33,2.5l0.31-0.08l2.19,8.17c-5.39,1.91-10.32,4.79-14.57,8.44l-6-6l0.22-0.22
	c1.38-1.38,1.38-3.62,0-5c-1.38-1.38-3.62-1.38-5,0l-5.44,5.44c-1.38,1.38-1.38,3.62,0,5c1.38,1.38,3.62,1.38,5,0l0.22-0.22l6,6
	c-3.65,4.26-6.53,9.18-8.44,14.57l-8.18-2.19l0.08-0.31c0.5-1.88-0.61-3.82-2.5-4.33c-1.89-0.51-3.82,0.61-4.33,2.5l-1.99,7.43
	c-0.5,1.88,0.61,3.82,2.5,4.33c1.82,0.49,3.8-0.55,4.33-2.5l0.08-0.31l8.17,2.19c-0.51,2.73-0.78,5.55-0.78,8.42
	c0,2.88,0.27,5.69,0.78,8.42l-8.17,2.19l-0.08-0.31c-0.52-1.95-2.51-2.98-4.33-2.5c-1.88,0.5-3,2.44-2.5,4.33l1.99,7.43
	c0.51,1.88,2.44,3,4.33,2.5c1.88-0.5,3-2.44,2.5-4.33l-0.08-0.31l8.17-2.19c1.91,5.39,4.79,10.32,8.44,14.57l-6,6l-0.22-0.22
	c-1.38-1.38-3.62-1.38-5,0c-1.38,1.38-1.38,3.62,0,5l5.44,5.44c1.38,1.38,3.62,1.38,5,0s1.38-3.62,0-5l-0.22-0.22l6-6
	c4.26,3.65,9.18,6.53,14.57,8.44l-2.19,8.17l-0.31-0.08c-1.96-0.52-3.84,0.69-4.33,2.5c-0.5,1.88,0.61,3.82,2.5,4.33l7.43,1.99
	c1.88,0.51,3.82-0.61,4.33-2.5c0.5-1.88-0.61-3.82-2.5-4.33l-0.31-0.08l2.19-8.17c2.73,0.51,5.55,0.78,8.42,0.78
	c2.88,0,5.69-0.27,8.42-0.78l2.19,8.17l-0.31,0.08c-1.88,0.5-3,2.44-2.5,4.33c0.5,1.88,2.44,3,4.33,2.5l7.43-1.99
	c1.88-0.5,3-2.44,2.5-4.33c-0.48-1.81-2.37-3.02-4.33-2.5l-0.31,0.08l-2.19-8.17c5.39-1.91,10.32-4.79,14.57-8.44l6,6l-0.22,0.22
	c-1.38,1.38-1.38,3.62,0,5c1.38,1.38,3.62,1.38,5,0l5.44-5.44c1.38-1.38,1.38-3.62,0-5c-1.38-1.38-3.62-1.38-5,0l-0.22,0.22l-6-6
	c3.65-4.26,6.53-9.18,8.44-14.57l8.17,2.19l-0.08,0.31c-0.5,1.88,0.61,3.82,2.5,4.33c1.89,0.51,3.82-0.61,4.33-2.5l1.99-7.43
	C131.17,80.46,130.05,78.52,128.16,78.02L128.16,78.02z M70.5,109c-21.39,0-38.8-17.4-38.8-38.8s17.4-38.8,38.8-38.8
	s38.8,17.4,38.8,38.8S91.89,109,70.5,109z"/>
<text transform="matrix(1.2032 0 0 1 139.5626 90.191)" class="st2 st3 st4 st5">Quarentek</text>
</svg>
